# xmcd
#
# Track frame offsets:
# 150
# 13677
# 26053
# 36558
# 52387
# 63909
# 74739
# 86036
# 98516
# 110469
# 122034
#
# Disc length: 1777 seconds
#
#
# Revision: 0
# Processed by: cddbd v1.5.2PL0 Copyright (c) Steve Scherf et al.
# Submitted via: FreeRIP 2.96 
#
DISCID=9f06ef0b
DTITLE=the osborne brothers - Ru-be eeee
DYEAR=1900
DGENRE=Country
TTITLE0=ruby are you mad
TTITLE1=listening to the rain
TTITLE2=thanks for all the yesterdays
TTITLE3=siempre
TTITLE4=let me be the first to know
TTITLE5=the fightin side of me
TTITLE6=tennessee hound dog
TTITLE7=world of forgotten people
TTITLE8=somebodys back in town
TTITLE9=put it off until tomorrow
TTITLE10=midnight angel
EXTD=
EXTT0=
EXTT1=
EXTT2=
EXTT3=
EXTT4=
EXTT5=
EXTT6=
EXTT7=
EXTT8=
EXTT9=
EXTT10=
PLAYORDER=
